<svg viewBox="0 0 841.89 530.96" xmlns="http://www.w3.org/2000/svg"><path d="m183.9 147.85c0 20.18-.5 33.13-1.51 38.85-2.19 12.95-7.91 24.05-17.15 33.3-11.77 11.77-27.92 17.66-48.43 17.66h-66.61v-179.62h66.6c20.52 0 36.66 5.89 48.43 17.66 9.25 9.25 14.97 20.35 17.15 33.3 1.01 5.72 1.51 18.67 1.51 38.85zm-44.15 0c0-22.2-1.6-35.65-4.79-40.36-4.54-6.73-11.6-10.09-21.19-10.09h-19.42v100.9h19.42c9.59 0 16.65-3.36 21.19-10.09 1.85-2.69 3.11-6.22 3.78-10.6.67-5.38 1.01-15.3 1.01-29.77z"/><path d="m258.57 237.66h-44.15v-179.62h44.15v179.61z"/><path d="m462.38 237.66h-44.14v-86.02l-25.48 44.4h-28.25l-25.48-44.4v86.02h-44.15v-179.62h43.39l40.36 79.21 40.36-79.21h43.39v179.61z"/><path d="m645.27 237.66h-46.16l-8.33-26.74h-55.24l-8.83 26.74h-46.16l65.33-179.61h34.06l65.34 179.61zm-66.09-63.57-15.14-47.93-16.14 47.93z"/><path d="m797.63 184.68c0 16.65-5.21 29.64-15.64 38.97s-23.88 14-40.36 14h-78.2v-179.61h74.42c18.33 0 32.45 4.71 42.38 14.13 9.92 9.42 14.88 22.03 14.88 37.84 0 14.8-6.56 26.66-19.68 35.57 14.8 9.25 22.2 22.29 22.2 39.1zm-46.67-72.4c0-9.75-5.3-14.63-15.89-14.63h-27.5v29.26h27.5c10.59 0 15.89-4.88 15.89-14.63zm2.52 69.88c0-10.43-5.38-15.64-16.14-15.64h-29.77v31.53h29.77c10.76 0 16.14-5.3 16.14-15.89z"/><path d="m95.52 326.09c0 7.17-1.85 12.75-5.56 16.76-4.62 4.98-10.39 7.47-17.31 7.47-6.56 0-12.08-2.25-16.58-6.74-2.79-2.79-4.59-6.2-5.37-10.2-.49-2.73-.73-8.08-.73-16.03s.24-13.3.73-16.03c.79-4.01 2.59-7.41 5.4-10.2 4.51-4.49 10.06-6.74 16.65-6.74 6.1 0 11.22 1.82 15.36 5.47 3.96 3.46 6.43 8.11 7.41 13.94h-6.96c-.92-4.13-2.78-7.36-5.58-9.7s-6.22-3.51-10.25-3.51c-4.46 0-8.21 1.55-11.26 4.65-1.95 2-3.24 4.53-3.84 7.56-.49 2.61-.73 7.47-.73 14.58s.24 11.99.73 14.67c.61 3.04 1.88 5.56 3.83 7.56 2.97 3.04 6.71 4.55 11.2 4.55 5.16 0 9.26-1.85 12.3-5.56 2.43-2.92 3.64-6.83 3.64-11.75v-4.92h-15.94v-6.1h22.87v10.3z"/><path d="m170.67 349.77h-8.11l-14.76-28.79h-15.58v28.79h-6.92v-64.86h24.87c5.71 0 10.34 1.63 13.89 4.87 3.55 3.25 5.33 7.64 5.33 13.16 0 4.62-1.27 8.44-3.83 11.48-2.55 3.04-5.98 5.01-10.29 5.92l15.39 29.42zm-8.2-46.73c0-3.82-1.18-6.77-3.55-8.84-2.37-2.06-5.5-3.1-9.38-3.1h-17.31v23.78h17.31c3.95 0 7.09-1.02 9.43-3.05s3.51-4.96 3.51-8.79z"/><path d="m241.63 317.34c0 7.96-.24 13.3-.73 16.03-.79 4.01-2.58 7.41-5.38 10.2-4.49 4.49-10.02 6.74-16.58 6.74s-12.08-2.25-16.58-6.74c-2.79-2.79-4.59-6.2-5.37-10.2-.49-2.73-.73-8.08-.73-16.03s.24-13.3.73-16.03c.79-4.01 2.58-7.41 5.37-10.2 4.49-4.49 10.02-6.74 16.58-6.74s12.08 2.25 16.58 6.74c2.79 2.79 4.58 6.19 5.38 10.2.49 2.73.73 8.08.73 16.03zm-6.92 0c0-7.11-.24-11.96-.73-14.58-.61-3.04-1.88-5.56-3.83-7.56-3.04-3.1-6.77-4.65-11.21-4.65s-8.17 1.55-11.2 4.65c-1.94 2-3.22 4.53-3.83 7.56-.49 2.61-.73 7.47-.73 14.58s.24 11.96.73 14.58c.61 3.04 1.88 5.56 3.83 7.56 3.04 3.1 6.77 4.65 11.2 4.65s8.17-1.55 11.21-4.65c1.94-2.01 3.22-4.52 3.83-7.56.49-2.61.73-7.47.73-14.58z"/><path d="m315.96 328.36c0 6.44-2.14 11.71-6.42 15.81s-9.7 6.15-16.26 6.15-11.96-2.05-16.21-6.15-6.38-9.37-6.38-15.81v-43.45h6.92v42.91c0 4.92 1.43 8.87 4.28 11.84 2.85 2.98 6.65 4.47 11.39 4.47s8.55-1.49 11.43-4.47c2.88-2.97 4.33-6.92 4.33-11.84v-42.91h6.92z"/><path d="m391.66 303.95c0 5.77-1.85 10.4-5.56 13.89-3.7 3.49-8.53 5.24-14.48 5.24h-17.22v26.69h-6.92v-64.86h24.14c5.95 0 10.78 1.73 14.48 5.19s5.56 8.08 5.56 13.85zm-6.92 0c0-4.19-1.25-7.38-3.74-9.57s-5.83-3.28-10.02-3.28h-16.58v25.78h16.58c4.19 0 7.53-1.11 10.02-3.33 2.49-2.21 3.74-5.42 3.74-9.61z"/><path d="m458.8 349.77h-40.26v-64.86h40.26v6.2h-33.34v22.87h28.42v6.19h-28.42v23.41h33.34z"/><path d="m438.22 405.92v24.1l14.06-24.1h21.93v58.31h-20.52v-24.1l-14.07 24.1h-19.38v-24.1l-14.06 24.1h-24.3l34.02-58.31z" fill="#d6d6d6"/><path d="m367.3 405.92-34.01 58.31h-24.3l34.01-58.31z" fill="#0066b1"/><path d="m391.6 405.92-34.02 58.31h-24.29l34.01-58.31z" fill="#003d78"/><path d="m415.9 405.92-34.02 58.31h-24.3l34.02-58.31z" fill="#e22718"/><path d="m246.07 409.63-31.05 53.24h36.21c5.05 0 9.72-2.68 12.26-7.04l26.95-46.19h-44.36zm11.42 43.95c-1.43 2.45-4.06 3.96-6.9 3.96h-8.75l15-25.71c.95-1.64 2.7-2.64 4.6-2.64h10.28zm13.26-27.98h-10.28l5.13-8.79h13.33l-3.59 6.15c-.95 1.64-2.7 2.64-4.6 2.64z" fill="#d5d5d5"/><path d="m246.07 409.63-31.05 53.23h-22.18l26.95-46.19c2.54-4.36 7.21-7.04 12.26-7.04h14.03z" fill="#0067b2"/><g fill-rule="evenodd"><path d="m788.99 407.07c4.59 10.57 5.86 24.23 2.43 35.71-2.78 9.86-8.19 19.09-16.51 26.24-7.96 6.94-17.16 11.14-27.36 12.92-19.09 2.7-36.55-3.8-49.23-17.73-13.03-14.34-17.33-36.86-9.97-55.13 4.41-12.59 15.86-24.86 28.34-30 10.99-5.04 25.48-6.32 37.44-2.62 13.57 3.63 27 14.42 33.37 27.49l1.48 3.13z" fill="#d8d8d8"/><path d="m786.01 407.26c4.95 10.57 5.99 24.62 2.29 36.04-3.51 12.23-12.94 23.98-24.55 30.19-11.28 6.54-27.23 8.3-40.09 4.04-13.12-3.84-25.93-14.78-31.46-27.64-5.01-10.27-6.07-23.9-2.82-35.29 3.39-12.85 13.5-25.74 25.91-31.81 12.23-6.66 29.51-7.68 42.61-2.23 11.75 4.41 23.12 15.01 28.11 26.71z" fill="#1d1d1b"/><path d="m771.24 408.96c6.23 9.61 7.18 24.2 2.22 34.7-2.95 6.58-8.23 12.94-14.71 16.77-.57-.09-.65.57-1.13.69-4.73 2.62-9.89 4.38-15.55 4.74-15.01 1.19-29.05-6.47-36.22-19.74-5.43-9.58-5.98-23.73-.9-33.6 4.42-9.58 13.78-17.78 23.8-20.25 11.77-3.41 24.65-.55 33.85 6.86 3.33 2.79 6.48 6.23 8.65 9.83z" fill="#d8d8d8"/><path d="m738.96 463.36c19.19 0 34.75-15.56 34.75-34.75s-15.56-34.75-34.75-34.75-34.75 15.56-34.75 34.75 15.56 34.75 34.75 34.75z" fill="#fff"/><path d="m742.19 379.36c1.32.86 1.39 2.44 1.36 3.87-.2 1.46-.37 3.34-2.07 3.74-5.46-.3-10.53.39-15.27 2.02-.12.57.3 1.1.34 1.73l-3.1 1.15-.21-.21-3.36-8.85c4.11-1.87 8.64-2.97 13.32-3.57 2.59-.31 5.28-.39 7.91-.25l1.08.35z" fill="#d8d8d8"/><path d="m752.88 380.94c-.61 3.17-1.55 6.31-2.34 9.47l-3.56-.88c.67-3.17 1.28-6.42 2.16-9.56 1.26.29 2.51.58 3.74.96z" fill="#d8d8d8"/><path d="m739.57 381.88c.24.36.42.83.25 1.31l-.39.39c-5.01-.06-9.81.86-14.31 2.23-.36-.51-.45-1.22-.7-1.82l.21-.21c4.56-1.43 9.51-2.38 14.58-2.17z" fill="#1d1d1b"/><path d="m762.87 385.15 7.06 13.87c.12.27.42.12.57 0l4.63-4.35c.93.74 1.56 1.69 2.34 2.61l-.15.24-6.92 6.46c-1.14-1.19-2.25-2.55-3.39-3.8l-6.24-11.43c-.06-.06-.12-.15-.21-.12-.95 1.62-1.62 3.32-2.57 4.91l-3.05-1.45.03-.33c1.36-2.84 2.65-5.72 4.01-8.56 1.35.5 2.6 1.21 3.89 1.95z" fill="#d8d8d8"/><path d="m720.65 393.18c-4.55 2.38-8.86 5.9-12.42 10.07-2.49-2.17-4.83-4.21-7.26-6.44l.09-.3c.77-.87 1.51-1.77 2.34-2.52l5.16 4.63.3-.09c3.09-3.18 6.59-5.68 10.28-7.64.57.68 1.08 1.52 1.5 2.29z" fill="#d8d8d8"/><path d="m718.12 404.44c1.08 1.31 2.52 1.93 4.25 1.77l34.53-.04c1.13-.22 2.3-.46 3.07-1.54 1.95 1.48 3.63 3.38 5.04 5.31-.21.36-.71.6-.92 1.02-.53.84-.74 1.82-.79 2.87l.07 28.74c-.49 4.06-2.4 7.89-6.03 10.33-4.9 3.67-11.59 3.11-16.56 6.51-.59.45-1.19 1.08-1.57 1.68-4.17-4.72-10.89-3.97-16.01-6.75-5.65-2.36-8.52-8.19-8.43-14.1l-.03-27.04c-.25-1.19-.7-2.5-1.87-3.12l.03-.24c1.48-2.01 3.14-3.72 5.07-5.4z" fill="#1d1d1b"/><path d="m706.6 405.52c-.89 1.17-1.6 2.49-2.46 3.63l-1.97.34c-2.69 5-4.21 10.5-4.63 16.44l.06.27c.6.59 1.23 1.04 1.65 1.66.04 1.25-.02 2.57.05 3.76l-.21-.06-9.42-7.92c.56-5.88 2.09-11.38 4.57-16.5l.24-.12 12.02-1.74h.12s-.03.24-.03.24z" fill="#d8d8d8"/><path d="m783.71 407.19c2.51 5.03 4.09 10.51 4.57 16.39l-7.93 7.09-1.69 1.44c.05-1.37.01-3.01.15-4.39l1.6-1.47c-.21-6.09-1.85-11.63-4.48-16.75-.72-.2-1.49-.29-2.24-.47l-2.35-3.78 12.37 1.93z" fill="#d8d8d8"/><path d="m724.49 407.69 13.91.04.1 1.85v48.8c-6.53-4.44-16.4-2.81-20.66-10.93-1.21-2.44-1.73-5.21-1.66-8.14l-.02-26.09c-.13-1.25-.49-2.38-1.33-3.34.89-1.35 1.99-2.34 3.2-3.48 1.8 1.24 4.13 1.29 6.45 1.28z" fill="#e2003a"/><path d="m760.13 406.66c1.05.92 2.04 2.05 2.94 3.21-1.1 1.41-1.24 3.23-1.23 5.11l.09 27.19c-.3 4.39-3.12 8.61-7.19 10.55-4.32 2.26-9.51 2.53-13.82 4.79l-1.25.9-.09-.54-.04-50.08c.21-.12.6-.12.92-.06l16.27-.09c1.25-.04 2.3-.55 3.4-.97z" fill="#164192"/><path d="m697.91 410.31c-1.71 4.04-2.91 8.28-3.51 12.76h-.18s-1.62-1.48-1.62-1.48c.55-3.82 1.51-7.47 2.98-10.91.68-.3 1.52-.28 2.27-.43z" fill="#1d1d1b"/><path d="m782.38 410.54c1.63 3.51 2.61 7.33 3.08 11.3-.53.48-1.13 1.14-1.78 1.47-.68-4.5-1.78-8.83-3.56-12.87l.09-.24 2.18.35z" fill="#1d1d1b"/><path d="m751.69 413.57c.15.72.07 1.49.1 2.27l.33.3.04 2.27c1.19-.19.39 1.25.7 1.82.72.2 1.67.05 2.51.14.15.45.16 1.1-.05 1.58l-5.19.03c-.12.33-.03.75-.05 1.13l.18.12 5.13.03c.12.42.06.92.04 1.37-.78.12-1.64.04-2.45.07-.27.39-.08 1.04-.14 1.55.18.27.63.03.87.2.57.41 1.44.53 1.77 1.12-.06.15.03.42-.21.42-.18.3-.11.84-.08 1.19.33.03.27.36.27.54v.15c-.83.39-1.58 1.02-2.53 1-.12.51-.08 1.1-.05 1.64.98-.04 1.71.68 2.51 1.03.15.12.06.36.09.54-.6.09-.2.78-.32 1.17.15.21.45.42.33.8-.48.39-1.07.72-1.7.93-.3.09-.9-.23-.92.27.15.42-.38 1.55.49 1.49l2.06.02c.12.48.12.98 0 1.46l-5.13.06c-.12.36-.14.87.04 1.19l5.04.03c.18.39.1 1.01.07 1.46-.81.15-1.7.04-2.54.13-.12.51-.05 1.13-.02 1.64.24.3 1.04-.18.93.47-.06.45.19 1.1-.2 1.34l-5.61-.06c-.12-.48-.13-1.07 0-1.55.18-.27.87.14.89-.36-.03-.51.05-1.04-.1-1.49-.87-.11-1.59-.59-2.33-.97-.06-.27-.06-.75.32-.75.06-.3.03-.66.02-.99-.24-.15-.45-.27-.36-.62.77-.39 1.31-1.29 2.32-1.09l.12-.09v-1.52c-.76-.2-1.65 0-2.43-.17-.03-.45-.1-1.01.08-1.43l5.25-.03c.18-.33.12-.81.08-1.16l-.18-.12h-5.16c-.21-.42-.09-.96-.13-1.43l.15-.15 2.21-.04c.15-.51.05-1.07.08-1.61-.69-.21-1.61-.05-2.36-.14-.12-.45-.09-.98-.07-1.43l.3-.12 5.04-.03c.09-.39.14-.93-.04-1.28l-5.25-.03c-.09-.48-.19-1.1.05-1.52.75 0 1.55.05 2.27-.07l.02-1.49c-.24-.24-.66-.03-.9-.17-.48-.47-2-.23-1.47-1.36.51-.15.17-.84.26-1.26-.45 0-.3-.54-.27-.77.62-.39 1.25-.87 2.02-.97.15-.51.02-1.13.11-1.67.24-.27.78.09.92-.3v-2.15s.26-.3.26-.3c.06-.78-.13-1.64.14-2.3l1.82.02z" fill="#1d1d1b"/><path d="m750.92 415.75c-.06.03-.03.09-.03.15-.15.06-.33.03-.48.03-.12-.48-.07-1.19-.04-1.76.6.24.48 1.01.55 1.58z" fill="#d8d8d8"/><path d="m726.59 414.75c.39.42-.36.27-.44.57-.53.51-.47 1.29-.47 2l-.23 13.01c.27.21.66.03.96.14.24.39-.26 1.34.43 1.34h1.94c.3-.4-.25-1.35.44-1.36.24-.06.57.09.72-.12-.06-4.81-.2-9.43-.38-14.26-.09-.36-.27-.74-.63-.95-.12 0-.24-.03-.33-.15-.03-.12.09-.24.18-.24h8.33c.12.07.06.19.06.31-.39.06-.83.36-.92.78-.09 4.81-.16 9.55-.13 14.51l.51.18v2.09s-.23.21-.23.21l.03 5.43c.27.21.72.06 1.02.14.12.78.1 1.64.04 2.45-.24.39-1.17-.2-1.07.51.15.42-.35 1.37.45 1.31.03.39.09.89-.08 1.25l-7.85-.02c-.12-.36-.06-.84-.04-1.19l.51-.15c.12-.48.08-1.05.02-1.52-.3-.24-1.16.19-.96-.53-.39-.21-.93-.08-1.4-.11-.21.06-.09.36-.18.51-.27.21-.81-.14-.92.27.03.48-.08 1.05.1 1.43.24-.06.45.12.36.36l-.02.9c-2.66.16-5.01.06-7.67.04-.12-.33-.06-.81-.04-1.16.75-.06.38-1.08.44-1.61-.21-.36-.95.12-1.02-.38l.02-2.24c.3-.3 1.2.23 1.04-.45l-.03-5.25-.3-.27.05-1.97c.18-.15.72.03.56-.45l-.29-14.09c-.09-.36-.33-.68-.66-.86-.15-.06-.51-.03-.36-.33.3-.15.72-.03 1.04-.13z" fill="#1d1d1b"/><path d="m724.07 417.45c-.04 4.3-.1 8.66-.26 12.95l-3.97.02-.06-.33-.26-14.27.06-.12c1.66.05 3.93.16 4.49 1.74z" fill="#d8d8d8"/><path d="m733.79 416.53c.48.56.81 1.19.79 1.97l-.2 11.85-4 .02c-.32-4.83-.23-9.79-.44-14.56l.15-.12c1.31.05 2.79-.06 3.71.85z" fill="#d8d8d8"/><path d="m750.9 416.59c.39.51.45 1.19.37 1.85h-.98c0-.71-.13-1.37-.04-2.14.27-.03.45.15.66.29z" fill="#d8d8d8"/><path d="m723.57 418.77-.18 10.3c0 .15-.12.27-.27.36-.3.06-.51-.18-.57-.44l.24-10.18c0-.15.12-.3.27-.39.27-.06.48.15.51.36z" fill="#1d1d1b"/><path d="m734.13 418.71c.02 3.4-.05 7.07-.15 10.42-.06.18-.15.27-.33.33-.24.06-.39-.21-.42-.39l.15-10.42c.09-.39.71-.36.75.06z" fill="#1d1d1b"/><path d="m751.12 419.33c.24.27.42.53.39.89-.66.15-1.4 0-2.18.01l.02-1.4c.63-.03 1.28.08 1.76.5z" fill="#d8d8d8"/><path d="m755.1 421.58c-2.86.16-5.61.03-8.39.05-.06-.06-.06-.12-.06-.18l1.46-.75 6.95.02.03.87z" fill="#d8d8d8"/><path d="m748.84 423.11c-.42.12-.92.09-1.34.04l.02-1.01c.54.06 1.08.47 1.32.98z" fill="#d8d8d8"/><path d="m755.05 423.52c.12.24.03.57.06.84-2.3.13-4.69.03-7.01 0l-1.41-.59v-.21c2.71-.07 5.82-.09 8.36-.05z" fill="#d8d8d8"/><path d="m751.64 426.29c-.57.12-1.31.07-1.94.07l-.12-.06c.03-.45-.06-.95.08-1.37.84.03 1.67.56 1.98 1.36z" fill="#d8d8d8"/><path d="m753.55 426.75c.51.27 1.11.47 1.53.83l-8.33.02c.03-.33-.24-.92.26-.93z" fill="#d8d8d8"/><path d="m754.19 429.08v.12s-1.94.01-1.94.01c-.12-.3-.12-.81 0-1.16.78.03 1.61.23 1.95 1.03z" fill="#d8d8d8"/><path d="m755.12 429.61c-.48.39-1.1.66-1.67.93l-6.72-.05c-.06-.3-.03-.72.11-.96l8.27.07z" fill="#d8d8d8"/><path d="m723.96 430.94-.1.14-4.66-.06-.02-.19c1.61.05 3.28-.14 4.78.12z" fill="#d8d8d8"/><path d="m733.68 430.85c.07.04.19.07.28.16l-4.66.03v-.19s4.37 0 4.37 0z" fill="#d8d8d8"/><path d="m724.73 431.46c.07.1.28.16.26.34-.18-.03-.39.03-.42.21l-.03.27-5.34.03c-.03-.3-.06-.66.07-.88z" fill="#d8d8d8"/><path d="m734.7 431.44c.25.19.55.52.62.85l-4.6.03c.08-.93-.96-.29-1.41-.53-.03-.12-.12-.36.07-.37l5.31.03z" fill="#d8d8d8"/><path d="m751.85 432.52c-.72.03-1.52.1-2.24-.02.03-.39-.06-.81.08-1.16.87.03 1.82.32 2.16 1.18z" fill="#d8d8d8"/><path d="m729.89 433.51c-1.57 0-3.27.17-4.86.03-.12-.42-.09-.92-.04-1.34 1.61-.07 3.22-.08 4.89-.03v1.34z" fill="#d8d8d8"/><path d="m725.44 433.29c-.06.09-.12.21-.24.12-.12-.33-.12-.78 0-1.1.45.06.15.66.24.98z" fill="#1d1d1b"/><path d="m726.09 432.48c-.03.3.09.69-.11.93h-.15c-.09-.33-.12-.8.05-1.1.12-.06.18.09.21.18z" fill="#1d1d1b"/><path d="m726.66 433.2c.03.09-.06.27-.18.21-.15-.3-.15-.81 0-1.1.33.09.12.6.18.89z" fill="#1d1d1b"/><path d="m727.26 433.11c.03.15 0 .27-.12.3h-.15c-.09-.33-.18-.86.05-1.1.39.06.15.54.21.8z" fill="#1d1d1b"/><path d="m727.76 432.3c.09.33.15.81-.02 1.1-.27.03-.18-.27-.21-.42l.06-.69h.18z" fill="#1d1d1b"/><path d="m728.48 433.07c0 .12 0 .24-.09.33-.15.06-.27-.06-.27-.18.06-.3-.12-.75.14-.93.3.06.21.51.21.77z" fill="#1d1d1b"/><path d="m728.96 433.39h-.12c-.09-.33-.15-.86.08-1.1.21.3.24.74.04 1.1z" fill="#1d1d1b"/><path d="m729.67 432.5c-.09.3.18.83-.2.93-.18-.3-.18-.8 0-1.1.12-.06.18.09.21.18z" fill="#1d1d1b"/><path d="m753.52 432.9c.54.27 1.14.5 1.62.86l-.12.06-8.27.02c-.03-.3-.09-.69.02-.96z" fill="#d8d8d8"/><path d="m724.59 435.72c.24.77.07 1.67.01 2.48-.6-.18-1.43-.32-1.97.1-.06-.3.14-.87.17-1.31 0-.48-.16-1.04-.6-1.37-.39-.42-.96-.5-1.49-.44-.54.06-.98.48-1.19.96l.03.78 1.43 4.8c.06.06.18.27.24.09-.31-1.73-.91-3.43-1.31-5.16l1.22-.1.37 2.92c.12.18.33.06.48 0l.27-.42c.13 1.04-.05 2.18.17 3.16.27-.03.15-.36.18-.57l.02-2.27c.48.33 1.17.41 1.79.35.03.95-.32 1.91-.22 2.84-1.55.07-3.16.08-4.69.03-.11-3.07-.06-6.27 0-9.31 1.94.23 4.27.39 5.09 2.45z" fill="#d8d8d8"/><path d="m734.22 435.04c-.89.6-.5 1.82-.73 2.75-.06.3-.03.63-.14.93-.54-.41-1.2-.77-1.94-.53-.39.06-.74.45-.92.78-.11 1.05.28 2.03.46 3.01h.12c.09-.78-.28-1.43-.25-2.21.51.15 1.19.02 1.67-.19.15.69.07 1.55.1 2.36.12.12.27.3.45.18.53-.72 1.13-1.5.97-2.36l-.33-.65.28-2.84c.36.06.69.35 1.17.26-.32 1.64-.88 3.29-1.2 4.96l.84 1.01c-1.67.13-3.19.08-4.95.09-.16-2.72-.03-4.81-.04-7.55l1.88-.07c.21-.39.11-.87.14-1.34.98-.3 1.97.56 2.43 1.42z" fill="#d8d8d8"/><path d="m729.35 433.93c.13 1.4.11 3.07.05 4.36-.27.12-.69-.06-.92.15.15.86-.89.33-1.31.48-.36-.03-.03-.75-.6-.56l-.54-.06-.02-4.3.24-.09h3.1z" fill="#e2003a"/><path d="m754.19 435.26v.15s-1.94.01-1.94.01c-.09-.33-.18-.8.05-1.07.75.03 1.49.23 1.89.91z" fill="#d8d8d8"/><path d="m755.15 435.88v.09s-1.46.75-1.46.75l-6.92-.02c-.09-.27-.12-.69.02-.93 2.72.07 5.64-.09 8.36.1z" fill="#d8d8d8"/><path d="m751.79 438.61c-.6.18-1.43.1-2.12.07-.03-.39-.06-.84.05-1.22.87-.03 1.64.41 2.07 1.15z" fill="#d8d8d8"/><path d="m719.12 440.22c-.06.12-.21.03-.3.06-.03-.39-.12-.92.05-1.25l.24.03v1.16z" fill="#d8d8d8"/><path d="m729.41 439.33-.02.93c-.21-.03-.63.12-.57-.24-.03-.36 0-.69.08-1.02.21.03.69-.06.51.33z" fill="#d8d8d8"/><path d="m755.14 439.01c.12.27.06.66.04.92-2.81.1-5.64.06-8.42-.01.36-.39.86-.72 1.37-.93z" fill="#d8d8d8"/><path d="m736.88 440.16c-.03.21-.24.06-.36.12-.18-.42 0-.78 0-1.16.39.21.3.65.36 1.04z" fill="#d8d8d8"/><path d="m728.46 439.7-.03.27-1.37.04c-.15-.09 0-.24 0-.36.33-.36.86-.24 1.31-.28z" fill="#d8d8d8"/><path d="m726.22 440.21c-.03.06-.12.03-.18.03l-.03-.6c.27.03.3.36.21.57z" fill="#d8d8d8"/><path d="m748.68 441.4c-.36.06-.78.06-1.13 0-.03-.24-.09-.66.08-.84.42.12.84.44 1.05.83z" fill="#d8d8d8"/><path d="m755.13 441.82c.21.27.03.63.03.93h-6.95s-1.47-.82-1.47-.82l.09-.15z" fill="#d8d8d8"/><path d="m723.8 443.57c-1.52.13-3.22.08-4.78.06v-.66c1.52.05 3.4-.38 4.66.48z" fill="#d8d8d8"/><path d="m734 443.57c-1.49.13-3.16.11-4.72.06-.18-.15-.09-.45-.06-.63l.12-.09c1.49.11 3.43-.38 4.66.66z" fill="#d8d8d8"/><path d="m751.86 444.73-.09.12c-.72-.03-1.49.07-2.15-.08.03-.39-.09-.86.08-1.16.9-.03 1.73.35 2.15 1.12z" fill="#d8d8d8"/><path d="m752.58 446.19c-1.25.07-2.51.07-3.85.02-.03-.33-.12-.78.05-1.04 1.37.11 3.13-.38 3.8 1.02z" fill="#d8d8d8"/></g><path d="m661.35 410.47h-50.75c-6.27-9.86-17.29-16.4-29.84-16.4s-23.57 6.55-29.84 16.4h-50.48l5.14 5.15h42.63c-.79 1.85-1.41 3.79-1.88 5.79h-34.97l5.14 5.15h29.04c-.08.95-.13 1.9-.13 2.87s.05 1.96.13 2.93h-23.26l5.14 5.15h18.93c.47 2 1.1 3.94 1.89 5.79h-15.04l5.14 5.15h12.63c6.28 9.82 17.28 16.34 29.8 16.34s23.52-6.52 29.8-16.34h12.9l5.14-5.15h-15.31c.79-1.85 1.42-3.79 1.89-5.79h19.2l5.14-5.15h-23.53c.08-.97.13-1.94.13-2.93s-.05-1.92-.13-2.87h29.31l5.14-5.15h-35.24c-.46-2-1.09-3.94-1.88-5.79h42.9l5.14-5.15zm-80.46 49.2c-16.67 0-30.19-13.52-30.19-30.19s13.52-30.19 30.19-30.19 30.19 13.52 30.19 30.19-13.52 30.19-30.19 30.19z" fill="#231f20"/><path d="m565.37 433.87-4.1-12.4h-4.65v15.93h3.39v-11.81l3.58 11.81h3.52l3.59-11.81v11.81h3.39v-15.93h-4.66z" fill="#231f20"/><path d="m594.92 433.14-6.38-11.67h-3.76v15.93h3.15v-11.16l6.39 11.25 3.79-.09v-15.93h-3.15z" fill="#231f20"/><path d="m577.79 421.46h3.23v15.93h-3.23z" fill="#231f20"/><path d="m601.79 421.46h3.23v15.93h-3.23z" fill="#231f20"/><path d="m140.36 408.99-10.77 6.84c-.58-.76-1.63-2.01-2.35-2.78l3.34-6.45.3-.41-.41.3-6.44 3.34c-.73-.66-1.87-1.64-2.73-2.31l6.84-10.76c.97.75 1.73 1.37 2.53 2.04l-4.52 6.82-.4.47.51-.35 6.01-3.01 2.13 2.13-3.01 6.01-.35.51.47-.4 6.82-4.51c.64.75 1.5 1.82 2.03 2.52z" fill="#6e706f"/><path d="m101.46 382.41c29.38 0 53.2 23.82 53.2 53.21s-23.82 53.2-53.2 53.2-53.21-23.82-53.21-53.2 23.82-53.21 53.21-53.21zm49.74 53.21c0-27.48-22.27-49.75-49.74-49.75s-49.75 22.27-49.75 49.75 22.28 49.74 49.75 49.74 49.74-22.27 49.74-49.74z" fill="#6e706f"/><path d="m133.01 435.62h-1.73c0-16.45-13.38-29.82-29.82-29.82v-1.73c17.42 0 31.55 14.12 31.55 31.55z" fill="#6e706f"/><path d="m131.28 435.62h1.73c0 17.43-14.11 31.55-31.55 31.55v-31.55z" fill="#0065ae"/><path d="m131.28 435.62h-29.82v-29.82c16.44 0 29.82 13.37 29.82 29.82z" fill="#fff"/><path d="m108.86 389.01.48 13.05c-1.06-.17-2.12-.31-3.15-.41l-.31-8.81.05-.61-.19.58-2.94 6.59h-2.68l-2.95-6.59-.18-.58.05.61-.31 8.81c-1.03.1-2.1.24-3.15.41l.48-13.05c1.47-.16 2.93-.28 4.4-.34l2.9 7.2.1.53.1-.53 2.9-7.2c1.46.06 2.93.18 4.4.34z" fill="#6e706f"/><path d="m101.46 465.44v1.73c-17.43 0-31.55-14.13-31.55-31.55h1.73c0 16.44 13.38 29.82 29.82 29.82z" fill="#6e706f"/><path d="m101.46 435.62v29.82c-16.44 0-29.82-13.38-29.82-29.82z" fill="#fff"/><path d="m101.46 405.8v29.82h-31.55c0-17.44 14.11-31.55 31.55-31.55z" fill="#0065ae"/><path d="m79.95 403.96c1.7 1.98.74 4.05-.96 5.84-2.4 2.53-3.64 3.79-6.7 7.16l-9.19-8.72c.88-1.15 2.35-2.93 3.36-4.05 3.35-3.74 4.58-4.83 6.18-4.99.86-.09 1.7.12 2.38.66 1.39 1.13 1.26 2.75 1.07 3.26l-.04.11.13-.05c1.29-.53 2.84-.29 3.77.78zm-1.96 2.51c.1-.44-.08-.89-.47-1.15s-.83-.22-1.23-.02c-.32.15-.61.43-1.06.91-1.14 1.18-4.64 4.87-4.64 4.87l1.86 1.77s4.16-4.44 4.64-4.96c.36-.38.79-.89.9-1.42zm-4.64-1.96c.43-.49.83-1.08.68-1.7-.14-.62-.76-1.05-1.36-.89-.38.11-.68.36-.96.62-.9.81-2.86 2.87-4.72 5.13l1.79 1.7s3.59-3.76 4.57-4.86z" fill="#6e706f"/></svg>