<svg aria-hidden="true" style="position: absolute; width: 0; height: 0; overflow: hidden;" version="1.1"
    xmlns="http://www.w3.org/2000/svg"
    xmlns:xlink="http://www.w3.org/1999/xlink">
    <defs>
        <symbol viewBox="0 0 24 24" id="facebook">
            <path fill="currentColor" d="M22 12c0-5.52-4.48-10-10-10S2 6.48 2 12c0 4.84 3.44 8.87 8 9.8V15H8v-3h2V9.5C10 7.57 11.57 6 13.5 6H16v3h-2c-.55 0-1 .45-1 1v2h3v3h-3v6.95c5.05-.5 9-4.76 9-9.95z"></path>
        </symbol>
        <symbol viewBox="0 0 16 16" id="twitter">
            <path fill="currentColor" d="M5.026 15c6.038 0 9.341-5.003 9.341-9.334c0-.14 0-.282-.006-.422A6.685 6.685 0 0 0 16 3.542a6.658 6.658 0 0 1-1.889.518a3.301 3.301 0 0 0 1.447-1.817a6.533 6.533 0 0 1-2.087.793A3.286 3.286 0 0 0 7.875 6.03a9.325 9.325 0 0 1-6.767-3.429a3.289 3.289 0 0 0 1.018 4.382A3.323 3.323 0 0 1 .64 6.575v.045a3.288 3.288 0 0 0 2.632 3.218a3.203 3.203 0 0 1-.865.115a3.23 3.23 0 0 1-.614-.057a3.283 3.283 0 0 0 3.067 2.277A6.588 6.588 0 0 1 .78 13.58a6.32 6.32 0 0 1-.78-.045A9.344 9.344 0 0 0 5.026 15z"></path>
        </symbol>
        <symbol viewBox="0 0 24 24" id="instagram">
            <path fill="currentColor" d="M7.8 2h8.4C19.4 2 22 4.6 22 7.8v8.4a5.8 5.8 0 0 1-5.8 5.8H7.8C4.6 22 2 19.4 2 16.2V7.8A5.8 5.8 0 0 1 7.8 2m-.2 2A3.6 3.6 0 0 0 4 7.6v8.8C4 18.39 5.61 20 7.6 20h8.8a3.6 3.6 0 0 0 3.6-3.6V7.6C20 5.61 18.39 4 16.4 4H7.6m9.65 1.5a1.25 1.25 0 0 1 1.25 1.25A1.25 1.25 0 0 1 17.25 8A1.25 1.25 0 0 1 16 6.75a1.25 1.25 0 0 1 1.25-1.25M12 7a5 5 0 0 1 5 5a5 5 0 0 1-5 5a5 5 0 0 1-5-5a5 5 0 0 1 5-5m0 2a3 3 0 0 0-3 3a3 3 0 0 0 3 3a3 3 0 0 0 3-3a3 3 0 0 0-3-3Z"></path>
        </symbol>
        <symbol viewBox="0 0 14 14" id="burger">
            <path fill="none" stroke="currentColor" stroke-linecap="round" stroke-linejoin="round" d="M13.5 2H6m5 5H3.5m5 5h-8"></path>
        </symbol>
        <symbol viewBox="0 0 256 256" id="dot"><path fill="currentColor" d="M156 128a28 28 0 1 1-28-28a28 28 0 0 1 28 28"></path></symbol>
        <symbol viewBox="0 0 512 512" id="u18"><path fill="#fff" d="M199.943 378.54h-39.699a7.457 7.457 0 0 1-7.457-7.457V209.745c0-5.813-6.356-9.391-11.325-6.375l-33.26 20.185a7.457 7.457 0 0 1-10.118-2.307l-16.01-24.596a7.456 7.456 0 0 1 2.388-10.447l71.447-43.244a7.46 7.46 0 0 1 3.861-1.078h40.174a7.457 7.457 0 0 1 7.457 7.457v221.743a7.46 7.46 0 0 1-7.458 7.457m219.954-180.643c0 17.335-8.42 33.904-27.221 47.094c-4.393 3.082-4.137 9.684.459 12.453c24.617 14.832 36.215 33.368 36.215 57.03c0 38.16-33.957 70.016-93.122 70.016c-57.064 0-90.322-31.157-90.322-68.966c0-24.072 12.154-41.419 32.907-53.376c4.529-2.61 4.952-9.021.844-12.254c-17.428-13.716-24.298-30.693-24.298-49.198c0-38.159 34.658-63.715 82.269-63.715c47.611.002 82.269 22.057 82.269 60.916m-91.215 75.385c-2.141-.756-4.53-.525-6.437.708c-13.645 8.817-20.326 22.105-20.326 38.735c0 19.254 14.004 31.507 36.059 31.507c23.455 0 35.358-13.303 35.358-30.107c0-19.255-10.152-28.006-36.059-37.809zm12.962-37.516a7.49 7.49 0 0 0 7.074-1.076c13.364-10.111 17.267-20.701 17.267-33.993c0-15.403-9.452-25.906-28.006-25.906c-17.154 0-28.707 8.752-28.707 26.607c0 16.104 9.452 25.206 28.356 32.908z"></path><path fill="#FF473E" d="M255.107 1.894C114.768 1.894 1.001 115.661 1.001 256s113.767 254.106 254.106 254.106S509.213 396.339 509.213 256S395.446 1.894 255.107 1.894m-149.275 403.38C65.96 365.402 44.001 312.388 44.001 256c0-49.613 17.006-96.609 48.249-134.345l297.202 297.202c-37.736 31.243-84.732 48.249-134.345 48.249c-56.389 0-109.402-21.959-149.275-61.832m313.831-17.018L122.85 91.444c37.375-30.156 83.553-46.55 132.257-46.55c56.388 0 109.402 21.959 149.274 61.831s61.831 92.886 61.831 149.274c.001 48.704-16.393 94.882-46.549 132.257"></path></symbol>
    </defs>
</svg>
