<svg width="160" height="155" viewBox="0 0 160 155" fill="none" xmlns="http://www.w3.org/2000/svg">
<g clip-path="url(#clip0_3315_13679)">
<path d="M47.4871 43.1158C48.0579 43.7018 48.6288 44.2879 49.1997 44.8697C49.1497 44.9199 49.0997 44.9702 49.0538 45.0204C47.8204 43.8525 46.387 42.9442 45.3369 41.5251C44.1326 39.8967 42.7284 38.4149 41.4199 36.8619C40.199 35.4135 38.8781 34.0196 38.2572 32.1694C37.7905 30.7755 37.7946 29.4276 38.7614 28.1843C39.5989 27.1043 40.6699 26.6857 41.9991 27.0541C43.5284 27.4811 44.8619 28.2932 46.1286 29.2266C46.662 29.6201 47.1412 30.0848 47.6787 30.4741C47.9579 30.6792 48.308 30.7838 48.6205 30.9471C48.7955 31.035 48.983 31.1229 49.1205 31.2527C49.9164 32.0145 50.704 32.7806 51.479 33.5633C51.7582 33.8438 52.0624 34.1452 51.7832 34.6098C51.7416 34.6768 51.7582 34.8108 51.7916 34.8903C52.3541 36.1838 52.2166 37.5819 52.3791 38.934C52.6833 41.4874 52.9083 44.0534 53.1625 46.6153C53.1917 46.9334 53.1958 47.2515 53.2208 47.7915C51.2582 46.0711 49.4705 44.5013 47.6829 42.9358C47.6162 42.9944 47.5537 43.053 47.4871 43.1116V43.1158Z" fill="white"/>
<path d="M72.164 25.1955C73.2932 25.5974 74.235 25.9072 75.1559 26.2755C75.4892 26.4095 75.7934 26.6439 76.0685 26.8825C76.5268 27.2802 76.9852 27.7113 76.7685 28.4146C76.5852 29.009 75.6184 29.6913 75.01 29.662C73.8933 29.6076 72.839 29.3146 71.8973 28.695C71.5681 28.4774 71.2597 28.2011 71.0222 27.8871C70.368 27.0416 70.5013 26.2965 71.3639 25.6686C71.4681 25.5932 71.5723 25.522 71.7431 25.4007C70.7472 22.3449 69.7513 19.3017 68.7554 16.2542C68.6012 15.777 68.3637 15.4715 67.7803 15.4338C65.4551 15.2873 63.1383 15.0863 60.8131 14.9147C60.6881 14.9064 60.5631 14.9524 60.3756 14.9817C60.5131 15.2663 60.6172 15.5049 60.7381 15.7394C61.8048 17.7821 62.8799 19.8207 63.93 21.8719C64.1134 22.2277 64.3259 22.4453 64.7342 22.5207C65.7301 22.7049 66.4552 23.3704 67.1511 24.0402C67.5553 24.4295 67.7595 24.9486 67.5178 25.5053C67.2928 26.0202 66.8094 26.1918 66.2844 26.2169C65.0343 26.2755 63.9967 25.7983 63.2091 24.8439C62.5841 24.0904 62.6132 23.3453 63.2508 22.5165C63.0674 22.1105 62.8841 21.65 62.6549 21.2147C61.6882 19.3812 60.7089 17.5561 59.7338 15.731C59.6088 15.4966 59.463 15.2705 59.3505 15.0277C58.9796 14.2282 59.213 13.8599 60.063 13.9268C62.7841 14.1445 65.501 14.3789 68.2178 14.5924C68.6387 14.6259 68.9137 14.8059 69.0637 15.1784C69.3013 15.7645 69.5554 16.3505 69.7388 16.9575C70.443 19.2933 71.1181 21.6374 71.8015 23.9774C71.9306 24.4253 72.0598 24.8732 72.1556 25.2039L72.164 25.1955Z" fill="white"/>
<path d="M68.172 50.7301C67.8553 50.5041 67.5094 50.3031 67.2219 50.0436C66.3552 49.2483 65.4551 48.5199 64.3342 48.1139C63.1591 47.6869 62.7674 47.7915 62.009 48.7627C61.1048 49.918 60.2047 51.0817 59.2963 52.2371C59.1129 52.4673 58.9088 52.6808 58.6129 53.0157C58.3504 52.6682 58.117 52.4129 57.9504 52.1157C57.8587 51.9524 57.8754 51.7264 57.8628 51.5254C57.6253 48.0594 57.392 44.5976 57.1628 41.1316C57.1503 40.9098 57.1878 40.6879 57.2128 40.2609C57.5878 40.5749 57.8378 40.7632 58.0712 40.9767C59.0046 41.8349 59.9255 42.7055 60.8631 43.5595C61.0798 43.7562 61.3256 44.0283 61.584 44.0618C62.3424 44.1623 62.8382 44.6395 63.3466 45.1209C65.0426 46.7241 66.7385 48.3273 68.4678 49.9683C68.3512 50.232 68.2387 50.4915 68.122 50.7552L68.1637 50.7301H68.172Z" fill="white"/>
<path d="M99.3869 35.8112C98.3535 31.5164 96.7159 27.4685 94.7741 23.383C95.1658 23.2825 95.4075 23.1528 95.6366 23.1737C97.5785 23.3453 98.7536 22.2821 99.6245 20.7207C99.8036 20.3984 99.9078 20.0384 100.104 19.7286C100.383 19.2807 100.766 19.2765 101.041 19.7286C101.212 20.0091 101.325 20.3356 101.425 20.6495C101.804 21.8635 102.15 23.0858 102.537 24.2955C102.833 25.2165 103.096 26.1625 103.512 27.0332C103.858 27.7657 103.804 28.5192 103.825 29.2559C103.85 30.1141 102.608 31.3699 101.783 31.508C101.32 31.5875 101.008 31.395 100.887 30.9345C100.762 30.4657 100.791 30.022 101.07 29.5908C101.516 28.896 102.095 28.3685 102.891 28.042C102.137 25.6141 101.391 23.203 100.591 20.6244C99.4953 22.5625 98.166 23.9648 95.7825 23.8937C95.87 24.1867 95.9158 24.4379 96.0158 24.6639C97.5326 28.1341 98.7994 31.6838 99.5995 35.3968C99.6703 35.7233 99.9078 36.0414 100.145 36.2926C100.62 36.7907 100.762 37.1173 100.433 37.7117C99.6703 39.1014 98.5869 40.173 97.0868 40.7256C96.1742 41.0605 95.7283 40.6377 95.9283 39.6958C96.3367 37.7786 97.4368 36.4726 99.3994 35.8196L99.3869 35.8112Z" fill="white"/>
<path d="M88.3902 15.5928C88.9444 15.5008 89.432 15.371 89.9195 15.3542C90.3779 15.3375 90.8362 15.4422 91.3405 15.4966C91.4405 15.2454 91.5488 14.9859 91.653 14.7263C92.1738 14.7891 92.1822 15.1868 92.1697 15.4882C92.153 15.9026 92.328 16.1538 92.5905 16.4426C93.5406 17.4849 93.1739 18.6151 91.7905 18.8496C90.5737 19.0547 89.4611 18.7114 88.5611 17.87C88.2735 17.6021 88.0652 17.1459 88.0027 16.7482C87.7902 15.4003 87.7027 14.0273 87.486 12.6794C87.0151 9.74501 86.4942 6.81481 85.99 3.88461C85.9609 3.72554 85.9109 3.57066 85.9025 3.52043C84.5149 3.21903 83.2148 2.97625 81.9356 2.64137C81.0188 2.40276 80.2479 1.8544 79.602 1.15534C79.1437 0.657202 79.1812 0.4186 79.677 0C80.2313 0.473018 80.7313 1.0172 81.3397 1.39394C82.4356 2.07626 83.694 2.31904 84.9608 2.40276C87.0068 2.5409 86.6359 2.58276 86.8484 4.12321C87.3568 7.79433 87.8277 11.4738 88.3152 15.1491C88.3319 15.2789 88.3569 15.4128 88.3902 15.597V15.5928Z" fill="white"/>
<path d="M53.5042 36.7029C54.1917 37.3684 54.9126 38.0047 55.5502 38.7163C55.7627 38.9549 55.8294 39.3861 55.8502 39.7377C55.9752 41.8684 56.0627 44.0032 56.1752 46.1381C56.2461 47.5027 56.3461 48.8674 56.4252 50.2278C56.4336 50.3869 56.4086 50.5501 56.3961 50.7176C55.371 50.5418 54.3334 49.5204 54.2417 48.5785C54.1376 47.5153 54.0792 46.4479 53.9876 45.3846C53.7667 42.8563 53.5375 40.3321 53.3167 37.8038C53.2875 37.4814 53.2833 37.1591 53.2667 36.8326C53.3458 36.7908 53.425 36.7489 53.5042 36.707V36.7029Z" fill="white"/>
<path d="M37.3113 44.9116C37.1987 46.3934 35.3319 48.1683 33.2151 48.905C33.3068 49.1143 33.3818 49.3278 33.4901 49.5246C33.7943 50.0771 34.1152 50.6213 34.4569 51.2199C35.1569 50.4999 35.8236 49.8511 36.7779 49.4869C36.7779 50.1525 36.2528 50.345 35.9153 50.6673C35.5569 51.0106 35.1694 51.3287 34.761 51.6887C34.8861 51.9566 34.9902 52.191 35.1069 52.4213C35.9945 54.1459 36.8445 55.8873 37.7821 57.5826C38.9197 59.6379 37.1071 61.936 35.7945 62.6309C35.0694 63.0118 34.5902 62.7481 34.3819 61.9444C34.0902 60.8226 34.7152 59.3156 35.807 58.6542C36.282 58.3654 36.8237 58.1979 37.4071 57.9426C37.3071 57.7207 37.2112 57.4487 37.0737 57.2017C35.7278 54.8157 34.3777 52.4296 33.0276 50.0436C32.7984 49.6376 32.5484 49.2357 32.3734 48.8046C32.165 48.2939 32.3484 47.9464 32.8609 47.9883C33.8943 48.072 34.5444 47.5069 35.1777 46.8371C35.7278 46.2553 36.2903 45.686 36.8612 45.1251C36.9446 45.0455 37.0821 45.0204 37.3113 44.92V44.9116Z" fill="white"/>
<path d="M54.0084 36.3428C54.2292 36.4977 54.4501 36.6484 54.6709 36.8033C54.6209 36.8535 54.5751 36.9038 54.5251 36.9498C54.3626 36.7405 54.2001 36.5312 54.0376 36.3219L54.0084 36.3386V36.3428Z" fill="black"/>
<path d="M54.0375 36.3261C53.8084 36.1712 53.5792 36.0122 53.3542 35.8573C53.4042 35.807 53.45 35.7568 53.5 35.7024C53.6709 35.9159 53.8417 36.1294 54.0125 36.3428L54.0417 36.3261H54.0375Z" fill="black"/>
<path d="M69.2012 75.5405C69.1554 77.0391 68.9887 78.5503 69.0929 80.0405C69.1929 81.5098 68.7512 82.5228 67.5886 83.4563C65.901 84.8083 64.38 86.3655 62.7841 87.8348C62.7132 87.8976 62.6174 87.9353 62.4549 88.0316C61.5715 87.4832 60.7172 86.872 60.088 85.9846C59.6838 85.4111 59.5671 84.7539 59.6463 84.0716C59.7297 83.3767 59.8005 82.6693 59.9838 81.9953C60.6547 79.5131 61.3715 77.0391 62.0715 74.5652C62.109 74.4354 62.159 74.314 62.209 74.1885C62.6424 73.0792 62.7216 73.0206 63.9133 73.2048C64.7676 73.3387 65.6135 73.5229 66.4677 73.682C66.7844 73.7406 67.1052 73.7824 67.4719 73.682C67.2802 73.5899 67.1011 73.4643 66.8969 73.4141C65.8301 73.1503 64.7676 72.8531 63.6883 72.6648C62.5465 72.4638 62.2049 72.6857 61.8007 73.7866C60.6631 76.8675 59.8297 80.0321 59.213 83.2553C58.8838 84.9716 59.388 86.3572 60.8089 87.3827C61.3506 87.772 61.884 88.1781 62.459 88.5129C64.18 89.5134 65.9218 90.4804 67.6553 91.4641C67.6928 91.4055 67.7261 91.3469 67.7636 91.2841C66.2968 90.3883 64.8259 89.4925 63.2383 88.5213C63.5425 88.2116 63.7841 87.9604 64.03 87.7134C64.9634 86.7674 65.951 85.9009 66.6969 84.7539C67.2344 83.9251 68.1386 83.339 68.8762 82.6442C68.9512 82.6735 69.0262 82.7028 69.1012 82.7321C69.1596 87.5585 69.2179 92.3808 69.2762 97.2742C69.0762 97.2282 68.8887 97.2198 68.7304 97.1403C67.5303 96.5584 66.351 95.9431 65.1426 95.378C62.8549 94.3064 60.7922 92.9334 59.0921 91.0371C58.4504 90.3213 57.9754 89.5343 57.8878 88.559C57.5712 85.0595 57.2836 81.56 57.6712 78.0479C57.9003 75.9801 58.3004 73.9499 59.1171 72.0243C59.2755 71.6559 59.4505 71.2959 59.6422 70.9443C60.3714 69.6132 61.4465 68.935 63.0007 69.1192C64.8176 69.3369 66.6385 69.5294 68.4553 69.7387C68.6137 69.7555 68.7637 69.8308 68.9679 69.8978C69.0012 71.4173 69.0262 72.9159 69.0721 74.4103C69.0846 74.8038 69.1679 75.1931 69.2179 75.5866L69.2012 75.5531V75.5405ZM68.472 84.7874C67.2719 85.6372 65.2801 87.7762 64.9384 88.5506C66.2968 87.3283 67.4928 86.1604 68.472 84.7874Z" fill="white"/>
<path d="M53.675 143.165C62.4882 148.762 72.989 151.927 84.2566 151.726C94.7949 151.542 104.575 148.423 112.855 143.165H53.675Z" fill="white"/>
<path d="M120.993 143.923V153.593L138.886 143.923H120.993Z" fill="white"/>
<path d="M58.0712 137.225H61.9298L60.0464 132.943L58.0712 137.225Z" fill="white"/>
<path d="M103.341 137.225H107.196L105.312 132.943L103.341 137.225Z" fill="white"/>
<path d="M34.1527 133.274C33.5026 132.571 32.6734 132.219 31.6608 132.219H29.8648V139.323H31.6608C32.6817 139.323 33.511 138.963 34.1527 138.243C34.4485 137.92 34.6735 137.548 34.8277 137.117C34.9819 136.69 35.0611 136.233 35.0611 135.752C35.0611 135.271 34.9819 134.827 34.8277 134.4C34.6735 133.973 34.4444 133.596 34.1527 133.274Z" fill="white"/>
<path d="M36.8529 104.156H0L9.09238 117.137L0.479204 129.398L16.7513 129.155L16.5096 114.491L36.8529 104.156Z" fill="white"/>
<path d="M36.4404 112.729V113.298L38.6739 113.269L38.1988 104.374L20.0099 113.512L31.815 113.357V112.729H36.4404Z" fill="white"/>
<path d="M30.8232 113.997C30.9024 114.24 30.9899 114.479 31.0733 114.717H31.815V113.985L30.8232 113.997Z" fill="white"/>
<path d="M44.0868 114.692V112.725H54.6876V114.671H57.5712C57.7753 114.416 58.0087 114.182 58.2795 113.964C59.4588 112.989 61.0589 112.495 63.0382 112.495C63.9133 112.495 64.7509 112.574 65.5218 112.733C66.1677 112.859 66.7844 113.055 67.3553 113.307L67.5178 113.378L67.1844 114.646L77.6311 114.625L78.2019 112.654H83.9357C84.1191 112.654 84.1649 112.654 84.5774 114.161L84.7108 114.608L90.9446 114.596L91.0613 112.721H97.0701L97.5201 114.583L101.158 114.575L101.683 112.721H107.55L107.642 114.562H110.513V112.721H115.138V114.55H118.347C118.53 114.336 118.734 114.144 118.959 113.96C120.139 112.984 121.739 112.49 123.718 112.49C124.593 112.49 125.431 112.57 126.202 112.729C126.847 112.855 127.464 113.051 128.035 113.302L128.198 113.374L127.897 114.525L135.54 114.508C137.757 108.145 138.861 101.255 138.619 94.0762C138.598 93.4734 138.577 92.8915 138.828 92.3055C138.944 92.0292 138.89 91.6399 138.815 91.3301C138.332 89.3878 137.861 87.4413 137.311 85.5158C136.54 82.8158 135.706 80.1326 134.89 77.4452C133.877 74.1299 132.244 71.1913 129.818 68.6797C128.856 67.6834 128.114 66.4611 127.364 65.2849C126.522 63.9621 125.814 62.5514 124.993 61.2161C124.489 60.3914 123.918 59.6003 123.31 58.851C122.564 57.9342 121.726 57.7375 120.63 58.1812C120.047 58.4198 119.472 58.7045 118.943 59.0477C117.684 59.864 116.442 60.7054 115.217 61.5761C114.776 61.89 114.071 62.0156 114.142 62.8193C114.151 62.9156 113.921 63.0537 113.784 63.1416C111.321 64.7365 108.858 66.3314 106.387 67.9137C106.2 68.0351 105.958 68.0685 105.742 68.1439C105.717 68.0811 105.687 68.0141 105.662 67.9513C107.842 66.1555 110.288 64.7449 112.696 63.1919C112.105 62.3044 111.567 61.5007 111.034 60.697C110.496 59.8891 109.942 59.0938 109.434 58.2691C108.95 57.478 108.321 56.7538 108.146 55.7952C108.475 56.1426 108.738 56.5277 109 56.9087C109.267 57.2938 109.525 57.6831 109.804 58.0598C110.054 58.4031 110.271 58.7798 110.684 58.9598C108.758 55.1882 105.696 52.4506 102.45 49.7255C102.929 49.2064 103.433 48.6413 103.95 48.0888C106.821 45.0204 109.7 41.9563 112.563 38.8796C113.426 37.9503 114.242 36.9833 115.088 36.0373C115.584 35.4805 115.805 35.4345 116.263 35.761C117.13 36.3763 117.509 36.347 118.188 35.5936C118.609 35.1247 119.005 34.635 119.438 34.1787C119.851 33.7475 120.259 33.2913 120.743 32.9522C121.826 32.1987 122.955 31.508 124.181 30.7211C124.018 31.0015 123.931 31.2108 123.797 31.3783C122.255 33.3206 121.009 35.4512 119.784 37.6028C119.268 38.507 119.222 39.4489 119.23 40.4075C119.234 41.0772 119.643 41.6381 120.28 41.8684C120.872 42.0819 121.393 41.8056 121.772 41.32C122.18 40.7968 122.651 40.2944 122.943 39.7084C123.626 38.3354 124.301 36.9456 124.831 35.5098C125.706 33.128 126.493 30.7085 127.243 28.2848C127.443 27.636 127.456 26.8992 127.418 26.2127C127.393 25.7607 127.385 25.4007 127.643 24.9946C127.814 24.7309 127.897 24.2579 127.777 23.9816C127.181 22.6044 126.089 21.6877 124.776 21.0305C124.422 20.8547 124.181 21.0347 124.106 21.3821C124.031 21.7379 124.047 22.1105 123.976 22.4663C123.893 22.8849 123.822 23.3244 123.635 23.697C123.522 23.923 123.214 24.1407 122.96 24.1909C121.801 24.4086 121.58 24.5635 121.605 25.6979C121.622 26.3969 121.351 26.9411 120.964 27.4392C120.072 28.5862 118.863 29.369 117.713 30.2187C117.422 30.4322 117.084 30.6206 116.742 30.7211C115.776 31.0015 115.284 31.7424 114.892 32.5671C114.646 33.0903 114.546 33.6429 114.921 34.1871C115.255 34.6685 115.046 35.0326 114.651 35.3968C113.767 36.2089 112.896 37.0335 112.063 37.9C108.296 41.8181 104.541 45.753 100.787 49.6878C100.583 49.9055 100.254 50.1483 100.249 50.3827C100.241 50.9353 99.8495 51.1194 99.5328 51.3832C97.4909 53.0869 95.1241 54.2547 92.7947 55.4854C92.5822 55.5985 92.3447 55.6696 92.1197 55.7617C93.8323 54.5352 95.6616 53.5389 97.5076 52.3292C94.2574 50.4497 91.9197 47.9046 90.1529 44.7944C89.8612 44.2795 89.4736 43.7856 89.0361 43.3921C87.561 42.0693 85.8734 41.0521 84.1191 40.1605C83.3148 39.7544 82.4814 39.8172 81.7314 40.2986C80.948 40.8009 80.1979 41.3619 79.4562 41.9228C78.4436 42.6846 77.4894 43.5344 76.4351 44.2335C74.56 45.4767 73.0349 47.1218 71.3097 48.5325C70.3138 49.3488 69.2054 50.0227 68.1512 50.7594L68.1928 50.7343C68.1178 51.245 68.5595 51.4083 68.8387 51.6636C71.2139 53.8152 73.6016 55.9459 75.9684 58.1059C76.4143 58.5119 76.906 58.9096 77.0518 59.5793C76.7435 59.4496 76.4768 59.2738 76.2435 59.0603C73.4224 56.5068 70.6097 53.9492 67.7928 51.3915C67.5969 51.2115 67.4344 50.998 67.2469 50.8097C66.2885 49.8594 65.2134 49.0934 63.9133 48.6832C63.4133 48.5241 63.0508 48.612 62.7049 49.0641C61.7381 50.3408 60.7131 51.5757 59.7213 52.8357C59.5588 53.0408 59.4213 53.2752 59.3046 53.5096C59.0671 53.9827 58.8921 54.4892 58.6171 54.9371C58.2545 55.5357 57.817 56.0882 57.417 56.6659C55.571 59.3533 53.6375 61.9905 52.4583 65.0756C52.4249 65.1635 52.3499 65.2514 52.2749 65.31C51.3748 65.9923 50.5039 66.7123 49.5622 67.3276C48.7955 67.8299 48.7663 67.7504 48.0954 67.1769C47.437 66.616 46.7661 66.0593 46.0536 65.5737C45.4369 65.1509 45.2285 65.2346 44.9035 65.896C44.6243 66.4653 44.3993 67.0639 44.0951 67.6206C43.6367 68.4662 43.5701 69.5881 42.4533 69.9857C42.3408 70.0276 42.295 70.2704 42.2241 70.4169C41.9741 70.9276 41.7533 71.455 41.4657 71.9406C41.1032 72.5643 40.6865 73.1545 40.2573 73.8117C39.3864 73.3262 38.6405 72.8908 37.8821 72.4848C35.7986 71.3713 34.8736 71.6434 33.786 73.7448C33.2151 74.8415 32.7275 75.9801 32.1733 77.0852C32.015 77.3991 31.7358 77.6503 31.5233 77.9349C31.2899 78.2489 30.9857 78.5377 30.8566 78.8935C30.1232 80.9028 29.4231 82.9247 28.7397 84.9549C28.6147 85.3274 28.5897 85.7418 28.5564 86.1395C28.4605 87.2488 28.3772 88.3623 28.3022 89.4757C28.1605 91.6441 27.9147 93.8124 27.9147 95.985C27.9147 98.551 28.0855 101.071 28.4105 103.541H39.4906L38.8155 103.884L39.3531 113.901L36.457 113.939V114.722L44.1076 114.705L44.0868 114.692ZM53.2583 104.817C53.125 105.387 52.7541 105.722 52.1499 105.801C51.1207 105.943 49.6997 104.947 49.3372 103.717C49.5955 103.888 49.7664 104.01 49.9372 104.114C50.4164 104.407 50.8665 104.771 51.379 104.968C52.1957 105.274 52.6166 104.884 52.4374 104.039C52.3541 103.654 52.1749 103.29 52.0457 102.909C51.9582 102.645 51.8832 102.377 51.7707 102.009C52.7833 102.574 53.4542 103.934 53.2542 104.813L53.2583 104.817ZM59.4671 93.3938C59.1379 93.8543 58.7963 94.3106 58.4254 94.7375C56.7003 96.7301 54.9668 98.7142 53.2292 100.694C53.1041 100.837 52.9291 100.933 52.7249 101.092C53.0083 100.037 58.3212 93.6785 59.6005 92.8497C59.5505 93.0757 59.5546 93.2683 59.4671 93.3897V93.3938ZM125.597 68.1858C126.114 67.9597 126.597 68.1774 126.914 68.6127C127.206 69.0104 127.447 69.4583 127.652 69.9062C128.256 71.2332 128.706 72.6313 129.643 73.795C129.902 74.1173 130.023 74.5527 130.235 74.9922C128.973 75.6285 129.002 75.6075 128.277 74.5317C127.706 73.6862 127.056 72.895 126.356 71.9573C126.252 72.2504 126.231 72.3718 126.168 72.4722C125.876 72.9285 125.489 72.9871 125.264 72.5308C124.822 71.6392 124.464 70.7057 124.085 69.7848C124.051 69.7011 124.056 69.5839 124.081 69.4876C124.285 68.7006 124.981 68.4578 125.606 68.1858H125.597ZM116.984 62.9616C118.134 62.003 119.284 61.0486 120.476 60.1486C121.284 59.5375 121.634 59.6379 122.105 60.5589C122.797 61.9235 123.497 63.2965 124.081 64.7072C124.322 65.2932 124.364 66.0007 124.356 66.6537C124.347 67.2648 123.851 67.4281 123.389 67.0262C123.068 66.7458 122.78 66.4235 122.36 65.9965C122.005 66.4235 121.714 66.729 121.48 67.0723C121.139 67.5872 120.901 67.6332 120.489 67.1895C119.88 66.5323 119.272 65.8709 118.663 65.2137C118.076 64.5816 117.463 63.9788 116.38 63.8114C116.63 63.4514 116.759 63.15 116.984 62.9616ZM113.451 92.5106C116.759 95.6627 120.08 98.7938 123.351 101.984C124.206 102.817 124.91 103.8 125.656 104.742C126.672 106.023 126.622 107.463 126.122 108.911C125.989 109.305 125.722 109.723 125.393 109.962C123.722 111.184 121.609 111.435 119.672 110.339C119.572 110.28 119.509 110.159 119.351 109.979C119.605 109.895 119.772 109.795 119.934 109.79C121.655 109.757 123.089 109.162 124.114 107.714C124.326 107.417 124.564 107.136 124.797 106.856C125.331 106.216 125.247 105.558 124.831 104.914C124.635 104.608 124.381 104.336 124.126 104.072C121.101 100.92 118.072 97.7766 115.046 94.6245C114.313 93.8585 113.596 93.0757 112.971 92.1673C113.13 92.2804 113.305 92.3808 113.446 92.5148L113.451 92.5106ZM111.771 91.2883C108.954 92.3725 106.108 92.7701 103.321 93.8041C103.958 94.5366 104.479 95.2315 105.092 95.8301C107.125 97.8059 109.188 99.7524 111.246 101.703C113.646 103.976 116.055 106.236 118.451 108.509C118.68 108.727 118.855 109.008 119.134 109.355C118.584 109.476 118.297 109.234 118.038 109.029C117.072 108.263 116.072 107.53 115.188 106.672C112.509 104.064 109.95 101.33 107.213 98.7896C105.104 96.8305 103.175 94.7124 101.266 92.5734C99.6744 91.598 98.6077 90.0869 97.3576 88.7599C96.6325 87.9855 95.9575 87.1651 95.2574 86.3655C95.3241 86.2986 95.3866 86.2358 95.4533 86.1688C96.2575 86.9976 97.0701 87.8223 97.8618 88.6595C98.6619 89.5092 99.4411 90.3757 100.262 91.2673C100.408 91.2171 100.591 91.0915 100.745 91.1208C100.92 91.1543 101.091 91.3092 101.225 91.4473C101.82 92.0711 102.404 92.7073 102.904 93.2431C105.775 92.5232 108.546 91.8241 111.317 91.1334C111.392 91.1167 111.492 91.1878 111.771 91.2883ZM108.896 88.6134C106.671 89.5888 104.3 90.0032 101.895 90.3129C104.216 89.6725 106.533 89.0278 108.854 88.3874C108.867 88.4627 108.879 88.5381 108.896 88.6134ZM107.142 87.1316C104.712 85.1014 102.487 82.8702 100.483 80.434C102.821 82.5605 105.121 84.7079 107.142 87.1316ZM101.529 51.8938C101.716 51.8436 102.008 51.9357 102.166 52.0655C103.729 53.3841 104.883 54.9789 105.433 56.9798C105.446 57.0301 105.4 57.1012 105.354 57.2477C104.491 57.2268 103.704 56.9463 103.033 56.3812C102.854 56.2305 102.787 55.9291 102.696 55.6905C102.504 55.1715 102.32 55.0501 101.808 55.2133C101.491 55.3138 101.2 55.4854 100.883 55.5859C100.174 55.8161 99.8745 55.7157 99.4203 55.1129C99.2411 54.8743 99.0869 54.6106 98.9036 54.3761C98.7202 54.1417 98.5077 53.9324 98.1743 53.5641C99.2661 52.7771 100.333 52.2036 101.529 51.8938ZM74.8933 52.5636C73.3557 52.7771 71.8348 52.685 70.3555 52.1869C70.2013 52.1366 70.0555 52.0697 69.7263 51.9399C70.6722 50.9227 71.5931 50.1148 72.6182 49.4241C72.9474 49.2022 73.2891 48.9846 73.6432 48.8046C75.9476 47.6283 77.9728 46.0669 79.8771 44.3214C80.7105 43.5595 81.5814 42.8395 82.6273 42.1865C82.5898 42.4167 82.5523 42.6428 82.5106 42.873C82.3898 43.5511 82.5773 43.8902 83.2315 43.8735C83.869 43.8525 84.0899 44.1121 84.2691 44.6772C84.3899 45.0581 84.7524 45.3721 85.0233 45.6986C85.3608 46.1046 85.815 46.4479 86.0442 46.9041C86.7276 48.2478 87.6818 49.332 88.8528 50.2487C89.0486 50.4036 89.2195 50.592 89.332 50.952C88.6278 50.8306 87.9235 50.705 87.2193 50.592C86.8901 50.5376 86.5568 50.458 86.2317 50.4832C85.74 50.5167 85.5608 50.9729 85.8859 51.3413C86.1026 51.5841 86.3859 51.7641 86.6609 51.9901C85.1275 52.3962 83.3648 51.2032 83.269 49.7297C83.2565 49.5622 83.2982 49.3822 83.244 49.2316C83.194 49.0892 83.0606 48.8841 82.9565 48.8799C82.794 48.8716 82.5398 48.9636 82.4689 49.0934C82.2564 49.4702 82.1564 49.9097 81.9356 50.278C81.5147 50.9897 81.0772 51.7013 80.5813 52.3627C80.1229 52.9738 79.477 53.1957 78.7145 52.9571C78.4936 52.8901 78.2519 52.8776 78.0353 52.798C77.006 52.4129 75.9559 52.4171 74.885 52.5636H74.8933ZM88.0944 61.89C89.382 61.9821 90.6654 62.0993 91.8988 62.1998C92.1114 62.2751 92.278 62.3128 92.4197 62.3923C92.9614 62.6979 92.9948 63.2547 92.4656 63.5644C92.1864 63.7277 91.853 63.8365 91.5322 63.8784C90.2529 64.0374 88.9694 64.2007 87.6818 64.2802C86.6109 64.3472 86.3484 63.8574 86.7526 62.8319C87.0026 62.1914 87.4152 61.844 88.0985 61.8942L88.0944 61.89ZM69.7429 64.3891C69.9138 63.5686 70.2263 63.2714 71.0514 63.104C71.9598 62.9198 72.8474 62.6351 73.7599 62.4886C75.2684 62.2416 76.7852 62.0114 78.3061 61.8816C80.5938 61.6849 82.8898 61.5719 85.1816 61.4379C86.015 61.3877 86.1776 61.5886 86.0484 62.4384C86.0275 62.5681 85.99 62.6979 85.9609 62.8277C85.7817 63.8491 85.6692 63.9244 84.6399 63.6691C83.8982 63.4849 83.194 63.4849 82.5273 63.9244C81.9897 64.276 81.3855 64.23 80.7813 64.1798C78.8895 64.0207 77.0018 63.8239 75.11 63.7151C74.0183 63.6523 72.914 63.6984 71.8181 63.7612C70.993 63.8072 70.8514 63.9705 70.768 64.8035C70.6722 65.7997 70.6263 66.8044 70.5597 67.8048C70.5472 67.9723 70.5638 68.1397 70.5555 68.3071C70.5347 68.663 70.6097 69.1485 70.0888 69.1318C69.6138 69.1192 69.6096 68.642 69.5888 68.282C69.5096 66.9802 69.4763 65.6783 69.7429 64.3891ZM84.9108 64.4184C84.4524 64.4184 83.9941 64.4184 83.5398 64.4184C83.5398 64.3263 83.544 64.2342 83.5482 64.1421C84.0024 64.1421 84.4566 64.1379 84.9108 64.1337C84.9108 64.2258 84.9108 64.3221 84.9108 64.4142V64.4184ZM79.4104 66.9509C79.3437 67.3276 79.1478 67.5495 78.7436 67.5076C78.3561 67.47 78.1019 67.1225 78.1728 66.7458C78.2436 66.3774 78.602 66.1304 78.977 66.21C79.3854 66.2979 79.4729 66.5825 79.4104 66.9509ZM77.2769 67.7295C77.7019 67.8341 77.9686 68.2778 77.8811 68.7257C77.7852 69.2239 77.2602 69.5713 76.7727 69.4667C76.3435 69.3746 76.1143 68.9811 76.1976 68.4704C76.2851 67.943 76.781 67.6039 77.2769 67.7295ZM76.5768 66.3607C76.631 66.2393 76.781 66.1639 76.8893 66.0676C76.9685 66.1848 77.0518 66.3021 77.1769 66.4862C76.9768 66.57 76.8477 66.6621 76.7227 66.6579C76.6643 66.6579 76.5435 66.4318 76.5768 66.3607ZM69.9513 70.1239C70.1346 69.9941 70.4597 69.9815 70.6972 70.0234C72.4765 70.3457 74.2683 70.3876 76.0684 70.4043C78.3353 70.4253 79.9812 69.5002 80.9397 67.4113C81.1772 66.8965 81.4605 66.39 81.598 65.8458C81.7481 65.2681 82.0564 65.1425 82.5981 65.13C85.0275 65.0714 87.4568 65.0086 89.882 64.8663C91.0071 64.7993 92.1322 64.6109 93.2323 64.3639C94.2824 64.1253 94.4949 63.3593 93.6948 62.6267C93.1739 62.1537 92.4822 61.7895 91.8072 61.5802C91.0238 61.3375 90.1695 61.3165 89.3486 61.1951C88.9944 61.1449 88.6444 61.0779 88.2777 61.0151C88.2569 60.404 88.5861 60.0984 88.9194 59.7635C89.4528 59.2193 89.9945 58.6668 90.4321 58.0514C90.9488 57.3231 91.5905 56.8668 92.4656 56.7329C93.7198 56.5403 94.9699 56.3603 96.2367 56.6282C97.2326 56.8417 97.4951 57.164 97.3951 58.1394C97.2743 59.3324 97.0867 60.5212 97.0034 61.7184C96.9742 62.1579 97.1034 62.6351 97.2743 63.0495C97.5368 63.6984 97.8993 64.3053 98.2118 64.9332C98.6035 65.7118 98.5077 66.4527 97.9076 67.0597C97.3493 67.6248 96.7534 68.1774 96.0992 68.6253C95.0491 69.3495 94.5366 70.3248 94.449 71.5639C94.3907 72.355 94.349 73.1462 94.2949 73.9415C94.2449 73.6276 94.1907 73.3094 94.1199 72.8992C93.5531 73.2885 93.0198 73.661 92.4447 74.0587C92.4364 74.3392 92.4656 74.6406 92.4114 74.9252C92.2489 75.8001 91.4821 76.0805 90.7821 75.5364C90.6237 75.415 90.4904 75.2685 90.3529 75.1261C89.9028 74.6657 89.5695 74.6782 89.1528 75.168C88.7069 75.6913 88.6528 75.6954 88.1819 75.2433C87.836 74.9085 86.8526 74.8917 86.3567 75.2057C85.8706 75.5154 85.4636 75.4499 85.1358 75.0089C85.0566 74.9043 84.9858 74.7745 84.8775 74.7201C84.1066 74.3392 83.3232 73.975 82.4981 73.5773C82.3481 73.8913 82.2523 74.1675 82.0981 74.4103C81.798 74.8834 81.2105 75.055 80.798 74.8164C80.3979 74.5861 80.2896 74.1508 80.5146 73.5815C80.6105 73.3387 80.7396 73.1043 80.9063 72.7527C79.9479 72.1834 78.9645 71.8987 77.8769 72.129C77.2935 72.2545 76.7268 72.468 76.1518 72.6355C75.4809 72.8322 74.8142 73.0457 74.135 73.2006C73.3724 73.3722 72.6223 73.3052 71.8806 73.008C71.3556 72.7987 70.7972 72.6815 70.2555 72.5183C69.8388 72.3927 69.5179 72.1457 69.5179 71.6852C69.5179 71.1285 69.4012 70.5006 69.9471 70.1197L69.9513 70.1239ZM69.2221 75.5699L69.2054 75.5364C69.2721 76.9345 69.3721 78.3326 69.4054 79.7307C69.5429 85.4488 69.6679 91.1669 69.7888 96.885C69.8013 97.5422 69.943 98.2622 69.7304 98.8482C68.7929 101.444 68.7512 104.227 67.9886 106.856C67.9636 106.944 67.9928 107.049 68.0011 107.191C68.1387 107.258 68.2803 107.346 68.4303 107.388C69.8054 107.785 71.1889 108.162 72.5598 108.564C74.5433 109.146 76.5601 109.1 78.5978 108.874C77.531 108.698 76.4643 108.543 75.4017 108.346C74.2891 108.141 73.1765 107.919 72.0723 107.668C71.0264 107.429 69.9805 107.174 68.9971 106.668C69.3762 106.006 69.968 106.576 70.3472 106.195C69.9263 105.969 69.5179 105.747 69.0804 105.512C69.4304 104.93 69.8471 105.136 70.2096 105.203C71.7473 105.491 73.2766 105.843 74.8225 106.086C79.1312 106.768 83.4607 106.705 87.761 106.086C89.3611 105.856 90.9113 105.257 92.4864 104.838C92.9989 104.7 93.5156 104.566 94.0407 104.483C94.3157 104.441 94.6074 104.512 94.9241 104.533C94.9449 105.399 94.1157 105.324 93.824 105.759C94.3115 106.416 94.3032 106.613 93.7115 107.141C93.2823 107.526 92.8323 107.886 92.3905 108.254C93.1989 107.882 94.049 107.576 94.7741 107.082C95.7283 106.433 96.1325 105.554 95.8867 104.252C95.0616 99.9282 94.4574 95.5706 94.3407 91.1501C94.2615 88.1865 94.0365 85.2228 93.8032 82.2633C93.6448 80.2289 93.499 78.1987 93.774 76.1726C93.874 75.4275 94.1157 74.6992 94.2949 73.9624C93.9323 76.181 93.8407 78.4205 94.1699 80.6391C94.7741 84.6828 94.8949 88.7558 95.0741 92.8287C95.2033 95.7924 95.6908 98.7394 96.0033 101.699C96.1283 102.863 96.2033 104.026 96.3325 105.19C96.4325 106.082 96.0783 106.793 95.4116 107.291C94.7532 107.785 94.0282 108.221 93.2781 108.564C90.9779 109.615 88.5194 109.723 86.04 109.686C82.9148 109.636 79.7854 109.569 76.656 109.585C74.8308 109.594 73.0849 109.28 71.3514 108.752C70.3347 108.443 69.3054 108.166 68.272 107.907C67.3261 107.668 67.2344 107.572 67.4511 106.601C67.972 104.286 68.5095 101.975 69.0387 99.6603C69.0971 99.4007 69.1596 99.137 69.2054 98.8775C69.3637 97.9984 69.3679 97.9691 68.547 97.5715C67.2011 96.9143 65.8385 96.2864 64.4842 95.6417C62.3257 94.6161 60.4047 93.2683 58.7462 91.5311C57.8337 90.5725 57.292 89.4883 57.1795 88.1572C56.8836 84.62 56.6461 81.087 57.1378 77.5498C57.4378 75.3899 57.8962 73.2676 58.8588 71.2918C59.0754 70.8439 59.3338 70.4085 59.6255 70.0025C60.338 69.0104 61.3131 68.4662 62.5424 68.6002C64.3925 68.8053 66.2343 69.0857 68.0845 69.3243C68.4178 69.3662 68.7554 69.3788 69.2179 69.4164C69.2179 71.3922 69.2179 73.4852 69.2179 75.5782L69.2221 75.5699ZM56.0335 61.2119C58.0004 58.5538 59.9672 55.8915 61.5173 52.9529C61.6215 52.752 61.784 52.5845 61.9923 52.3083C62.4674 52.6599 62.9091 52.9864 63.3633 53.3296C63.3008 53.4636 63.2799 53.5641 63.2174 53.6227C62.5924 54.2254 62.534 54.485 63.1216 55.1087C63.7633 55.7868 64.4759 56.3896 65.1676 57.0175C65.8593 57.6454 66.5719 58.2482 67.2552 58.8803C68.1345 59.6965 68.2512 60.7305 68.0095 61.8398C67.8595 62.5221 67.7261 62.6351 67.0386 62.4928C66.4219 62.3672 65.8218 62.1621 65.2218 61.9654C64.53 61.7393 64.255 61.823 64.1842 62.5514C64.0842 63.5393 63.5383 64.0123 62.6799 64.3263C60.4214 65.1509 58.2587 66.1974 56.2086 67.4616C54.9585 68.2318 53.875 67.8132 52.7416 67.1058C53.775 65.0546 54.6918 63.0244 56.0294 61.2161L56.0335 61.2119ZM52.2791 98.5845C53.1041 97.1068 54.2751 95.9222 55.3418 94.6496C55.7002 94.2185 56.1044 93.825 56.6086 93.4859C56.5836 93.5864 56.5919 93.712 56.5336 93.7873C55.3085 95.4868 54.1126 97.2073 52.8333 98.8649C52.1082 99.8068 51.2457 100.64 50.4414 101.519C50.3748 101.485 50.3081 101.456 50.2414 101.423C50.2373 101.192 50.2289 100.966 50.2206 100.619C49.5914 100.372 48.933 100.05 48.2371 99.8612C47.4162 99.6394 47.0287 99.9742 47.2078 100.774C47.4162 101.711 47.7454 102.628 48.0829 103.528C48.1871 103.809 48.4954 104.014 48.7413 104.294C47.9621 105.295 47.1787 106.308 46.3786 107.316C46.2244 107.509 46.1036 107.697 45.7327 107.597C45.5244 107.543 45.2035 107.932 44.9243 108.124C44.5951 107.781 44.816 107.476 45.0035 107.224C45.4452 106.643 45.9077 106.073 46.412 105.542C46.8453 105.081 47.337 104.683 47.7787 104.282C47.3537 103.478 46.9162 102.733 46.5661 101.946C46.3661 101.498 46.2536 100.987 46.1994 100.497C46.0994 99.5556 46.612 98.9863 47.5579 98.8817C48.3788 98.7938 49.0455 99.1663 49.6705 99.6268C49.9872 99.8612 50.2748 100.137 50.6623 100.472C51.2123 99.8361 51.8749 99.2835 52.2707 98.5803L52.2791 98.5845ZM42.6242 73.1797C43.3575 71.6476 44.1159 70.1322 44.8243 68.5918C45.2744 67.6123 45.5869 67.4574 46.4661 68.0225C47.2162 68.5081 47.9496 69.0271 48.6663 69.5629C49.0913 69.8811 50.2581 71.8276 50.5206 72.5978C48.6955 73.7908 46.8578 74.5694 44.6701 73.8996C44.2785 73.7782 43.8201 73.8662 43.3951 73.8745C43.0825 73.8829 42.77 73.9164 42.32 73.9499C42.4616 73.5857 42.5325 73.3764 42.6242 73.1797ZM36.6529 79.4503C36.3903 79.3038 36.0111 79.1824 35.7486 79.2619C35.3403 79.3875 35.3111 79.8438 35.4028 80.2079C35.7111 81.4344 35.1027 82.167 34.161 82.7823C33.1859 83.4186 32.24 84.0967 31.2941 84.7539C30.6191 84.1302 30.5774 84.1093 30.8982 83.4019C31.89 81.2126 32.9151 79.0317 33.936 76.855C34.3193 76.0387 34.7194 75.2308 35.1236 74.4229C35.2277 74.2136 35.3319 73.9875 35.4944 73.8327C35.6736 73.6652 35.9486 73.4559 36.1403 73.4936C36.3237 73.5271 36.5028 73.8327 36.5904 74.0545C36.9862 75.0424 37.2529 76.0931 37.7529 77.0266C38.203 77.8638 38.8864 78.5754 39.5614 79.4628C38.5447 79.9359 37.6154 79.9903 36.657 79.4545L36.6529 79.4503Z" fill="white"/>
<path d="M160 127.631L143.249 127.87V143.496L123.385 154.074L159.521 153.593L151.383 141.093L160 127.631Z" fill="white"/>
<path d="M141.574 115.132L127.722 115.157L127.193 117.183L126.964 117.07C126.881 117.028 126.797 116.994 126.714 116.965C126.597 116.915 126.497 116.881 126.397 116.852C126.135 116.739 125.889 116.655 125.639 116.597C124.989 116.429 124.326 116.346 123.664 116.346C121.897 116.346 121.897 117.066 121.897 117.304C121.897 117.493 122.16 118.028 124.576 118.954C127.364 119.996 128.777 121.653 128.777 123.889C128.777 125.396 128.202 126.635 127.072 127.577C125.864 128.598 124.122 129.121 121.897 129.121C121.005 129.121 120.089 129.017 119.176 128.812C118.355 128.619 117.688 128.393 117.197 128.138L117.055 128.062L117.943 124.157L118.184 124.282C118.697 124.554 119.284 124.776 119.93 124.944C120.701 125.14 121.447 125.241 122.155 125.241C124.085 125.241 124.085 124.433 124.085 124.165C124.085 123.797 123.681 123.219 121.76 122.566C120.326 122.043 119.218 121.407 118.472 120.674C117.626 119.824 117.201 118.803 117.201 117.627C117.201 116.71 117.426 115.889 117.868 115.174H115.13V128.883H110.504V115.186H107.663L108.35 128.883H103.862L103.671 123.031C103.641 122.177 103.616 121.193 103.6 120.109C103.591 119.502 103.583 118.841 103.579 118.116C103.433 118.702 103.275 119.322 103.104 119.975C102.825 120.992 102.546 121.972 102.266 122.922L100.666 128.56H97.0659L95.7241 122.913C95.5241 122.106 95.3033 121.122 95.0699 119.987C94.9658 119.489 94.8658 118.974 94.7657 118.451L94.5991 123.035L94.3324 128.887H90.0529L90.8988 115.232L84.89 115.245L88.882 128.694L88.7319 128.845L88.6236 128.87H84.1149C83.9232 128.87 83.9066 128.87 83.5399 127.426L82.9315 125.203H79.7187V124.927L80.3854 121.653H82.2398L80.998 116.781L78.352 128.74L78.2478 128.845L78.1394 128.87H73.7516L73.5558 128.673L73.5891 128.556L77.4352 115.266L67.0052 115.287L66.5052 117.195L66.276 117.082C66.1927 117.041 66.1093 117.007 66.026 116.978C65.9093 116.928 65.8093 116.894 65.7093 116.865C65.4468 116.752 65.2009 116.668 64.9509 116.609C64.3009 116.442 63.6383 116.358 62.9758 116.358C61.209 116.358 61.209 117.078 61.209 117.317C61.209 117.505 61.4715 118.041 63.8883 118.966C66.676 120.008 68.0887 121.666 68.0887 123.901C68.0887 125.408 67.5136 126.647 66.3844 127.589C65.1759 128.611 63.4341 129.134 61.2048 129.134C60.313 129.134 59.3963 129.029 58.4879 128.824C57.667 128.632 57.0003 128.406 56.5086 128.15L56.3669 128.075L57.2545 124.169L57.4962 124.295C58.0087 124.567 58.5962 124.789 59.2421 124.956C60.013 125.153 60.7589 125.253 61.4673 125.253C63.3966 125.253 63.3966 124.446 63.3966 124.178C63.3966 123.809 62.9924 123.232 61.0714 122.579C59.638 122.055 58.5296 121.419 57.7837 120.687C56.9378 119.841 56.5127 118.815 56.5127 117.639C56.5127 116.768 56.7169 115.99 57.117 115.303H54.6751V116.609H48.6996V118.711H54.3251V122.541H48.6996V125.019H55.0001V128.895H44.0743V115.328L36.4237 115.345V124.952H42.445V128.895H31.7983V115.354L18.0806 115.379L17.8431 142.542H142.036L141.557 115.136L141.574 115.132ZM35.3694 137.313C35.1819 137.803 34.9194 138.247 34.5735 138.636C34.211 139.042 33.7818 139.352 33.2818 139.57C32.7859 139.787 32.2442 139.892 31.6608 139.892H29.294V131.633H31.6608C32.2442 131.633 32.7817 131.742 33.2818 131.955C33.7776 132.173 34.211 132.478 34.5735 132.876C34.9194 133.257 35.1861 133.692 35.3694 134.186C35.5528 134.676 35.6486 135.199 35.6486 135.748C35.6486 136.296 35.5569 136.819 35.3694 137.309V137.313ZM42.8825 132.219H38.128V135.471H41.8324V136.058H38.128V139.297H42.8825V139.896H37.5571V131.637H42.8825V132.223V132.219ZM54.5584 139.892H49.3747V131.633H49.9456V139.318H54.5626V139.892H54.5584ZM63.1091 139.892L62.184 137.795H57.8087L56.8336 139.892H56.2002L60.0714 131.532L63.7258 139.892H63.1049H63.1091ZM75.1517 138.615C75.0017 138.9 74.7808 139.147 74.4933 139.36C73.9016 139.783 73.2141 139.997 72.4307 139.997C72.0431 139.997 71.6723 139.942 71.3181 139.833C70.9639 139.724 70.6472 139.565 70.368 139.364C69.8888 139.009 69.5971 138.573 69.4971 138.054L70.043 137.749C70.068 138.213 70.2972 138.594 70.7264 138.891C70.9472 139.063 71.2014 139.189 71.4973 139.281C71.7931 139.369 72.1056 139.415 72.4348 139.415C73.1099 139.415 73.6808 139.239 74.1433 138.891C74.5892 138.561 74.8142 138.171 74.8142 137.724C74.8142 137.46 74.7308 137.217 74.5683 136.987C74.4058 136.757 74.1725 136.564 73.8808 136.401C73.6016 136.258 73.1057 136.141 72.389 136.058C72.3307 136.049 72.1181 136.016 71.7514 135.957C71.3847 135.898 71.0722 135.806 70.8097 135.677C70.3972 135.471 70.0721 135.204 69.8346 134.869C69.5971 134.534 69.4804 134.174 69.4804 133.78C69.4804 133.466 69.5596 133.173 69.7138 132.897C69.868 132.621 70.093 132.378 70.3763 132.165C70.6555 131.959 70.9722 131.805 71.3264 131.696C71.6806 131.587 72.0515 131.532 72.439 131.532C73.2224 131.532 73.9099 131.746 74.5017 132.169C74.9892 132.541 75.2767 132.972 75.3601 133.466L74.8184 133.772C74.81 133.558 74.7475 133.358 74.635 133.161C74.5225 132.968 74.36 132.788 74.1475 132.629C73.9183 132.458 73.6599 132.332 73.3641 132.24C73.0682 132.152 72.7598 132.106 72.439 132.106C72.1181 132.106 71.8098 132.152 71.5098 132.24C71.2097 132.328 70.9514 132.458 70.7305 132.629C70.5097 132.788 70.343 132.968 70.2263 133.169C70.1096 133.37 70.0513 133.575 70.0513 133.785C70.0513 134.048 70.1471 134.308 70.343 134.567C70.5347 134.827 70.7764 135.028 71.0639 135.17C71.2389 135.254 71.4389 135.317 71.6514 135.354C71.8681 135.392 72.1431 135.434 72.4807 135.476C72.539 135.484 72.689 135.505 72.9224 135.538C73.1557 135.572 73.3849 135.618 73.6058 135.677C73.8266 135.735 74.01 135.806 74.1641 135.894C74.5517 136.116 74.8517 136.384 75.0684 136.702C75.285 137.02 75.3892 137.359 75.3892 137.724C75.3892 138.038 75.3142 138.335 75.16 138.619L75.1517 138.615ZM82.894 139.57C82.3273 139.846 81.7314 139.984 81.098 139.984C80.3479 139.984 79.6521 139.791 79.0103 139.411C78.3686 139.03 77.8644 138.515 77.4936 137.866C77.1227 137.217 76.9352 136.514 76.9352 135.752C76.9352 134.99 77.1227 134.287 77.4936 133.642C77.8644 132.998 78.3686 132.487 79.0103 132.106C79.6521 131.725 80.3479 131.532 81.098 131.532C81.6814 131.532 82.2398 131.654 82.7731 131.892C83.3107 132.135 83.7774 132.474 84.1816 132.914L83.7399 133.307C83.4024 132.926 83.0023 132.629 82.5439 132.42C82.0856 132.211 81.6022 132.102 81.0938 132.102C80.4438 132.102 79.8437 132.265 79.2979 132.592C78.7478 132.918 78.3145 133.362 77.9894 133.918C77.6644 134.479 77.5019 135.086 77.5019 135.748C77.5019 136.409 77.6644 137.02 77.9894 137.577C78.3145 138.138 78.752 138.577 79.2979 138.904C79.8437 139.23 80.4438 139.394 81.0938 139.394C81.6314 139.394 82.1439 139.277 82.6315 139.038C83.1148 138.799 83.5315 138.469 83.8774 138.046L84.3316 138.402C83.9357 138.9 83.4524 139.289 82.8898 139.565L82.894 139.57ZM92.203 135.752V139.896H91.6322V136.058H86.7735V139.896H86.1901V131.637H86.7735V135.476H91.6322V131.637H92.203V135.752ZM99.8286 139.896H94.6449V131.637H95.2158V139.323H99.8328V139.896H99.8286ZM108.379 139.896L107.454 137.799H103.079L102.104 139.896H101.47L105.342 131.537L108.996 139.896H108.375H108.379ZM111.009 137.518C111.33 138.071 111.763 138.506 112.313 138.833C112.859 139.159 113.455 139.323 114.096 139.323H116.476V136.363H113.767V135.79H117.067V139.892H114.096C113.346 139.892 112.655 139.704 112.021 139.331C111.388 138.958 110.888 138.452 110.517 137.811C110.146 137.171 109.959 136.472 109.959 135.71C109.959 134.948 110.146 134.258 110.517 133.621C110.888 132.981 111.388 132.474 112.021 132.098C112.655 131.721 113.346 131.532 114.096 131.532C114.671 131.532 115.221 131.65 115.747 131.888C116.272 132.127 116.73 132.458 117.117 132.88L116.701 133.274C116.363 132.91 115.967 132.629 115.513 132.428C115.059 132.227 114.584 132.131 114.096 132.131C113.455 132.131 112.863 132.29 112.313 132.612C111.763 132.935 111.33 133.37 111.009 133.914C110.688 134.458 110.529 135.061 110.529 135.71C110.529 136.359 110.688 136.966 111.009 137.514V137.518ZM124.822 132.219H120.068V135.471H123.772V136.058H120.068V139.297H124.822V139.896H119.497V131.637H124.822V132.223V132.219ZM131.844 139.892L128.427 135.723H129.439C130.064 135.723 130.569 135.643 130.956 135.48C131.244 135.346 131.489 135.141 131.702 134.865C131.914 134.588 132.019 134.287 132.019 133.956C132.019 133.659 131.931 133.378 131.752 133.111C131.577 132.843 131.323 132.625 130.994 132.458C130.664 132.286 130.285 132.202 129.856 132.202H127.556V139.888H126.985V131.629H129.856C130.244 131.629 130.606 131.692 130.944 131.813C131.281 131.934 131.577 132.11 131.827 132.34C132.073 132.562 132.26 132.809 132.39 133.09C132.519 133.37 132.585 133.659 132.585 133.952C132.585 134.417 132.448 134.835 132.169 135.204C131.889 135.572 131.56 135.836 131.181 135.999C130.919 136.116 130.664 136.191 130.414 136.221C130.164 136.25 129.902 136.267 129.623 136.267L132.594 139.888H131.835L131.844 139.892Z" fill="white"/>
<path d="M98.7827 119.946C98.9452 120.678 99.0911 121.39 99.2161 122.064L99.7244 119.891C100.004 118.753 100.245 117.807 100.445 117.082L100.975 115.207L97.666 115.215L98.1285 117.137C98.3577 118.033 98.5785 118.979 98.7827 119.946Z" fill="white"/>
</g>
<defs>
<clipPath id="clip0_3315_13679">
<rect width="160" height="154.074" fill="white"/>
</clipPath>
</defs>
</svg>
